# xmcd CD database file
#
# Track frame offsets:
#	150
#	19462
#	37295
#	58316
#	79352
#	96566
#	115477
#	135718
#	155381
#	166516
#	182141
#	199275
#	216301
#	231483
#	246228
#	257852
#	275916
#	295961
#
# Disc length: 4181 seconds
#
# Revision: 0
# Processed by: cddbd v1.5.1PL2 Copyright (c) Steve Scherf et al.
# Submitted via: ACXtractor (MTCDDB.DLL V2003.12.21)
#
DISCID=2b105312
DTITLE=Alejandro Lerner - Baladas
DYEAR=18
DGENRE=Rock
TTITLE0=Despues de ti
TTITLE1=Mira hacia tu alrrededor
TTITLE2=Lejos de voz
TTITLE3=Buen Viaje
TTITLE4=Dentro de Mi
TTITLE5=Cambiar el Mundo
TTITLE6=El desierto
TTITLE7=Mi Fe
TTITLE8=Cuando una Mujer
TTITLE9=Animales de Costumbres
TTITLE10=Sientes
TTITLE11=Sin tu Amor
TTITLE12=No hace falta que lo digas
TTITLE13=Todo a pulmon
TTITLE14=Nada menos Nada Mas
TTITLE15=Secretos
TTITLE16=Castillo de arena
TTITLE17=Cuando te hago el Amor
EXTD=YEAR: 18  ID3G:  17
EXTT0=Alejandro Lerner
EXTT1=Alejandro Lerner
EXTT2=
EXTT3=
EXTT4=
EXTT5=
EXTT6=
EXTT7=
EXTT8=
EXTT9=
EXTT10=
EXTT11=
EXTT12=
EXTT13=
EXTT14=
EXTT15=
EXTT16=
EXTT17=
PLAYORDER=
